<svg xmlns="http://www.w3.org/2000/svg" viewBox="0 0 62.4 78.49" width="64" height="78"><path fill="#826550" d="M62.4 42c0-5.21-2.37-7.77-3.6-10a55.72 55.72 0 01-4.2-17.64c-.07-4.9-1.69-12.44-2.88-14.4-.86 0-1.52 7.78-2.28 11.64-1.43 7-3.77 8.94-4.44 9-.76-2.81-4.11-7.36-13.68-7.72h-.25c-9.56.36-12.91 4.91-13.67 7.72-.68-.06-3-2-4.44-9C12.2 7.76 11.54 0 10.68 0 9.49 2 7.87 9.5 7.8 14.4a56 56 0 01-4.2 17.64c-1.23 2.19-3.6 4.75-3.6 10 0 3.75 5.2 7.21 5.64 11.4.16 1.19-.03 2.32.16 3.32 2 17.49 17.87 21.73 25.44 21.73s23.44-4.24 25.44-21.73c.15-1 0-2.13.12-3.36.4-4.19 5.6-7.64 5.6-11.4zM33.24 26.76a21.39 21.39 0 00-4.08 0c-1.73.34-5.76 1-5.76-1.08 0-1.06 6.72-2.29 7.8-2.29s7.8 1.23 7.8 2.29c0 2.08-4.03 1.42-5.76 1.08z"/></svg>