<svg xmlns="http://www.w3.org/2000/svg" viewBox="0 0 57.68 68.64" width="58" height="68"><path fill="#826550" d="M51.6 22.2c.12-1.7.47-3.51.72-5.4.7-5.43 1.6-11.67-.12-16.8h-.24c-1.32 3.74-1.26 8.35-2.16 12.36a19.62 19.62 0 01-3.24 7.56c-.53.69-1.06 1.55-1.92 1.8-.66-3.92-4.28-4.94-7.68-6.36-2.13-.89-4-2-6.12-2.16a11.27 11.27 0 00-2 .23 11.27 11.27 0 00-2-.23c-2.15.14-4 1.27-6.12 2.16-3.39 1.42-7 2.44-7.68 6.36-.86-.25-1.39-1.11-1.92-1.8a19.93 19.93 0 01-3.24-7.56c-.9-4-.83-8.62-2.16-12.36h-.24c-1.71 5.13-.82 11.37-.12 16.8.25 1.89.6 3.7.72 5.4.79 11-7 23.12-6 28.92.93 7.53 8.4 9.4 14.16 12.36 4.35 2.24 8.31 5 13.32 5.16h2.6c5-.21 9-2.93 13.32-5.16 5.68-2.97 13.19-4.8 14.12-12.36.95-5.8-6.79-17.87-6-28.92zm-22.76 3.74a35.83 35.83 0 01-7.16-.5c.67-2 4-1.56 7.08-1.56h.16c3.05 0 6.42-.49 7.08 1.56a35.78 35.78 0 01-7.16.5z"/></svg>