<svg xmlns="http://www.w3.org/2000/svg" viewBox="0 0 94.94 94.16"><path d="M90.29 28.39a47 47 0 00-8.51-13.1c-.65 1.26-1.31 2.52-2 3.78a43.27 43.27 0 016.42 10c1.37-.23 2.72-.41 4.09-.68zm-.28 15.17c.1 1.16.16 2.33.16 3.52a43.08 43.08 0 01-43.08 43.08c-.79 0-1.57 0-2.35-.07a7.19 7.19 0 01.22 1.84 6.47 6.47 0 01-.4 2.16c.84 0 1.68.07 2.53.07a47.13 47.13 0 0047.08-47.08 46.4 46.4 0 00-.42-6.16 39.32 39.32 0 01-3.74 2.64zM4 47.08A43.08 43.08 0 0168.67 9.79l3.37-2.63A47.07 47.07 0 1029.67 90.8a18.36 18.36 0 01-.57-4.58A43.09 43.09 0 014 47.08z" fill="#826550" fill-rule="evenodd"/><path d="M38.77 84.9c7.74-2.72 16.32-9.66 14.54-19.82-.89-5.15-4.48-5-7.27-9.26 14.44-12 24.22-28.65 33-46.26h-2c-7.44 5.66-21.91 17-28.41 26.44-2.61 3.78-4.6 9.31-7.27 13.88-4.54 7.74-15.13 21.23-6.61 31.06-1.38 4.62-1.2 12.38 4 12.55 3.29-1.72-1.36-4.6.02-8.59zm8.32-38.82a2.58 2.58 0 11-2.59 2.58 2.58 2.58 0 012.59-2.58zm-10.3 28.91c-1.86-9 7-16.95 11.9-9.25.26 7.42-6.18 15.77-11.9 9.25z" fill="#826550" fill-rule="evenodd"/><path d="M55.96 51.2c14-5.2 30.57-7.75 39-18.51-9.42 1.38-18.12 3.47-27.76 4.63-2.14 6.23-7.04 9.71-11.24 13.88zM12.34 39.96c-4.22 12.25 8.42 16 21.81 13.88 3.78-4.81 5.85-10 2-15.86-4.91-7.46-20.93-6.32-23.81 1.98zm5.29 7.27c-5.13-10.84 12.89-11.06 14.54-5.28 2.17 7.63-9.1 8.03-14.5 5.28z" fill="#826550" fill-rule="evenodd"/></svg>