<svg xmlns="http://www.w3.org/2000/svg" viewBox="0 0 57 97.68" width="58" height="98"><path fill="#826550" d="M51.12 15.24C50.72 9.79 50.51 4.39 48.6 0c-.77 0-1.53 7.31-2.28 10.92-1.48 7.14-3.71 8.24-4.44 8.24-.86-3.86-4.38-4.24-7.8-5.88a11.16 11.16 0 00-3.58-1.12 13.32 13.32 0 00-2 .12 13.32 13.32 0 00-2-.12 11.16 11.16 0 00-3.6 1.2c-3.42 1.64-6.94 2-7.8 5.88-.73 0-3-1.14-4.44-8.28C9.91 7.35 9.14.04 8.38.04 6.47 4.43 6.25 9.83 5.86 15.28 4.98 38.82-.02 51.57-.02 62.44c0 26.07 11.71 35.28 28.5 35.28s28.5-9.21 28.5-35.28C57 51.53 52 38.78 51.12 15.24zm-16.68 9.72c-2.79 1.17-5.35-.71-5.88-.72h-.12c-.53 0-3.09 1.89-5.88.72-.78-3.58 2.4-4 5.94-3.91 3.54-.13 6.72.33 5.94 3.91z"/></svg>