<svg xmlns="http://www.w3.org/2000/svg" viewBox="0 0 44.66 104.78" height="105"><path fill="#826550" d="M43.39 0h-.12c-2.81 21.53-5.38 22.56-7 22.68s-3.64-1.77-4.92-2.52a15.93 15.93 0 00-9.02-2.55 15.93 15.93 0 00-9.06 2.54c-1.28.75-3.5 2.63-4.92 2.52-1.58-.12-4.14-1.15-7-22.68h-.12c-2.07 12.21-1.56 50.2 1.2 63.6 2.61 18.52 10.11 35.11 13.44 39.6.68 1 3.53 1.57 6.42 1.58s5.74-.54 6.42-1.58c3.38-4.48 10.87-21.07 13.48-39.58 2.76-13.41 3.27-51.4 1.2-63.61zM22.33 28.15a99.13 99.13 0 00-10.14.53c1.13-1.75 9-3.24 10.14-3.45 1.15.21 9 1.7 10.14 3.45a99.28 99.28 0 00-10.14-.53z"/></svg>