<svg xmlns="http://www.w3.org/2000/svg" viewBox="0 0 51.48 49.48" width="52" height="49"><path fill="#826550" d="M50.88 0h-.24c-2.31 7.69-2.93 17.07-9.4 20.64-1.19-3.36-4.11-4.9-7.44-6.36-2.12-.94-4.55-2.56-6.6-2.64a2.17 2.17 0 00-1.5.31 2.18 2.18 0 00-1.5-.31c-2.06.08-4.49 1.7-6.6 2.64-3.33 1.46-6.25 3-7.44 6.36C3.72 17.07 3.1 7.64.8 0H.56a14 14 0 00-.6 2.4c0 1.92.54 21.46 1.92 28.44 1.24 6.29 6.07 10.83 10.8 13.8 3.29 2.07 8.5 4.83 13 4.83s9.73-2.76 13-4.83c4.72-3 9.56-7.51 10.8-13.8 1.37-7 1.92-26.52 1.92-28.44a15 15 0 00-.52-2.4zM36.95 28.05c-.25 1.55-1.67 3.39-3.36 3.48-3 .17-4.51-4.41-7.86-4.38s-4.88 4.55-7.86 4.38c-1.7-.09-3.12-1.93-3.36-3.48a7.58 7.58 0 011.73-5.64c1.1-1.07 2.82-.93 4.68-1.2a8.54 8.54 0 004.86-2 8.54 8.54 0 004.86 2c1.86.27 3.57.13 4.68 1.2a7.58 7.58 0 011.63 5.64z"/></svg>