<svg xmlns="http://www.w3.org/2000/svg" viewBox="0 0 94.94 94.16"><title>advantages-1</title><path d="M197.62,322.73a47,47,0,0,0-8.51-13.1c-.65,1.26-1.31,2.52-2,3.78a43.27,43.27,0,0,1,6.42,10C194.9,323.18,196.25,323,197.62,322.73Z" transform="translate(-107.33 -294.34)" style="fill:#826550;fill-rule:evenodd"/><path d="M197.34,337.9c.1,1.16.16,2.33.16,3.52a43.08,43.08,0,0,1-43.08,43.08c-.79,0-1.57,0-2.35-.07a7.19,7.19,0,0,1,.22,1.84,6.47,6.47,0,0,1-.4,2.16c.84,0,1.68.07,2.53.07a47.13,47.13,0,0,0,47.08-47.08,46.4,46.4,0,0,0-.42-6.16A39.32,39.32,0,0,1,197.34,337.9Z" transform="translate(-107.33 -294.34)" style="fill:#826550;fill-rule:evenodd"/><path d="M111.33,341.42A43.08,43.08,0,0,1,176,304.13l3.37-2.63A47.07,47.07,0,1,0,137,385.14a18.36,18.36,0,0,1-.57-4.58A43.09,43.09,0,0,1,111.33,341.42Z" transform="translate(-107.33 -294.34)" style="fill:#826550;fill-rule:evenodd"/><path d="M146.1,379.24c7.74-2.72,16.32-9.66,14.54-19.82-.89-5.15-4.48-5-7.27-9.26,14.44-12,24.22-28.65,33-46.26h-2c-7.44,5.66-21.91,17-28.41,26.44-2.61,3.78-4.6,9.31-7.27,13.88-4.54,7.74-15.13,21.23-6.61,31.06-1.38,4.62-1.2,12.38,4,12.55C149.37,386.11,144.72,383.23,146.1,379.24Zm8.32-38.82a2.58,2.58,0,1,1-2.59,2.58A2.58,2.58,0,0,1,154.42,340.42Zm-10.3,28.91c-1.86-9,7-16.95,11.9-9.25C156.28,367.5,149.84,375.85,144.12,369.33Z" transform="translate(-107.33 -294.34)" style="fill:#826550;fill-rule:evenodd"/><path d="M163.29,345.54c14-5.2,30.57-7.75,39-18.51-9.42,1.38-18.12,3.47-27.76,4.63C172.39,337.89,167.49,341.37,163.29,345.54Z" transform="translate(-107.33 -294.34)" style="fill:#826550;fill-rule:evenodd"/><path d="M119.67,334.3c-4.22,12.25,8.42,16,21.81,13.88,3.78-4.81,5.85-10,2-15.86C138.57,324.86,122.55,326,119.67,334.3Zm5.29,7.27c-5.13-10.84,12.89-11.06,14.54-5.28C141.67,343.92,130.4,344.32,125,341.57Z" transform="translate(-107.33 -294.34)" style="fill:#826550;fill-rule:evenodd"/></svg>
